<svg width="140" height="140" viewBox="0 0 140 140" fill="none" xmlns="http://www.w3.org/2000/svg">
<g id="top-part">
<path id="Vector" d="M70 0L70.9574 16.6864L72.8572 33.2947L75.6839 49.7497L79.4175 66.0003L84.0304 81.9989L89.4894 97.7011L95.754 113.0655L102.779 127.8559L103.728 129.581L117.071 117.071L102.779 127.856L110.441 141.826L112.132 144.926L70 70L27.8676 144.926L29.559 141.826L37.2214 127.856L22.9294 117.071L36.2718 129.581L37.2214 127.856L44.246 113.065L50.5106 97.7011L55.9696 81.9989L60.5825 66.0003L64.3161 49.7497L67.1428 33.2947L69.0426 16.6864L70 0Z" fill="#B3945B"/>
</g>
</svg>
