<svg width="171" height="185" viewBox="0 0 171 185" fill="none" xmlns="http://www.w3.org/2000/svg">
<path d="M169.954 0.745351L0.395752 2.19676V120.602C0.395752 129.771 5.28985 138.241 13.2284 142.825L45.0887 161.215L85.2149 183.642L125.341 161.215L157.201 142.825C165.14 138.241 170.034 129.771 170.034 120.602V60.3012V0V6.00767V2.19676" fill="url(#paint0_linear_160_18)"/>
<path d="M169.954 0.745351L0.395752 2.19676V120.602C0.395752 129.771 5.28985 138.241 13.2284 142.825L45.0887 161.215L85.2149 183.642L125.341 161.215L157.201 142.825C165.14 138.241 170.034 129.771 170.034 120.602V60.3012V0V6.00767V2.19676" stroke="url(#paint1_linear_160_18)" stroke-width="0.791313"/>
<g clip-path="url(#clip0_160_18)">
<path d="M85.4655 36.4865C87.954 39.9477 92.3985 45.5065 89.6861 49.9084C87.6595 53.196 82.6873 53.1928 80.7657 49.8089C78.2067 45.3044 82.6434 40.055 85.0442 36.4865H85.4639H85.4655Z" fill="url(#paint2_linear_160_18)"/>
<path d="M59.597 57.5868C61.9226 60.1326 65.3241 65.7656 62.3423 68.8638C60.2782 71.0087 56.717 69.9781 55.8447 67.2003C54.8737 64.1099 57.6817 59.8801 59.5985 57.5868H59.597Z" fill="url(#paint3_linear_160_18)"/>
<path d="M110.914 57.5868C112.798 60.0237 115.03 63.084 114.753 66.3401C114.383 70.6709 108.521 71.4222 107.164 67.1971C106.121 63.9568 109.041 60.0111 110.914 57.5868Z" fill="url(#paint4_linear_160_18)"/>
<path d="M69.0624 64.5992C69.0561 64.6987 68.6787 65.1485 69.0608 65.15C70.7945 61.6036 71.1218 57.9451 68.876 54.5375L66.2466 51.5908C69.3411 51.1915 72.348 53.589 72.6596 56.7156C72.8303 58.4344 72.4889 59.4603 72.1053 61.0417C72.0661 61.1995 71.9001 61.5578 72.1898 61.5215C73.3378 59.1509 74.8522 57.1038 75.015 54.356C75.1795 51.6003 74.2821 49.6842 72.1914 47.9655C74.481 47.2789 77.1934 48.8793 77.8731 51.1457C78.6875 53.862 76.8849 56.5167 75.477 58.6837C75.5866 58.7847 76.6688 57.9877 76.9335 57.8662C77.9906 57.3832 79.411 57.118 80.5652 57.2648C80.7829 57.2932 81.0209 57.3532 80.797 57.5789C75.5757 59.2503 70.536 63.8779 68.0319 68.7628C67.963 68.8969 67.6294 69.0958 67.8894 69.2489C69.1548 67.7621 71.1014 66.4095 73.131 66.6479C67.4618 69.271 65.155 74.8329 65.4667 80.9173L66.2842 78.3541C69.0232 71.1665 75.8936 67.0803 80.7218 61.5263C82.4852 59.4981 84.3833 56.7219 84.5462 53.9614C79.0023 53.1439 77.2874 48.1675 79.1134 43.1927C80.3647 39.7851 83.0145 36.8447 85.0097 33.8743L85.3981 33.7875C86.4396 35.1038 87.4967 36.4296 88.4347 37.8233C90.8731 41.4407 93.6858 46.3272 91.1895 50.6328C90.0948 52.5189 88.1341 53.7531 85.9666 53.963C85.9556 55.4529 86.6713 56.9886 87.398 58.2623C91.523 65.4831 100.478 69.5977 103.773 77.5524L104.89 81.0767C105.348 75.1407 103.098 69.241 97.3817 66.8846C97.3254 66.4727 97.4271 66.5626 97.7545 66.5879C99.5069 66.722 101.344 67.9547 102.467 69.2521C102.644 68.9932 102.269 68.5481 102.139 68.3193C99.5022 63.687 94.7758 59.2945 89.7142 57.5821C90.2232 56.9602 91.6734 57.3185 92.3766 57.5016C93.4509 57.7809 94.1948 58.4486 95.1892 58.8431C93.4681 56.6335 91.9146 53.8841 92.7994 50.9958C93.5088 48.6804 96.0099 47.3673 98.3198 47.967L96.7553 49.6211C94.1603 53.3427 95.9269 58.0461 98.3182 61.3684C96.4374 56.6603 98.6503 51.0952 104.265 51.594C104.338 51.897 104.153 51.897 104.002 52.0375C100.428 55.314 98.9572 58.3744 100.548 63.3018L101.447 65.1516C100.993 62.8441 101.645 59.5471 104.108 58.6885C103.815 59.6717 103.167 60.5051 102.927 61.5184C101.795 66.3275 105.519 71.7284 105.987 76.5044C106.972 75.5132 107.762 74.8519 109.271 75.0871C108.941 75.5274 108.322 75.7026 107.918 76.0877C105.622 78.2721 105.97 85.2435 104.935 88.6116C103.41 93.5722 98.1366 99.4166 92.7461 99.8191C89.7894 100.04 86.8577 98.3371 87.2116 95.0305C87.4841 92.4847 90.812 91.1747 92.3766 93.296C93.1831 94.3897 92.909 96.2111 91.4369 96.1369C92.9247 93.0434 88.0401 93.1255 88.654 96.099C89.2695 99.0773 93.5292 98.356 95.5588 97.4532C99.8514 95.5419 103.377 90.5908 103.774 85.8669C104.921 72.2729 89.9664 67.8695 85.2556 57.1117C82.1062 64.4998 74.4669 68.3082 69.9362 74.6262C66.2246 79.803 65.2427 86.3262 68.6834 91.9449C70.6833 95.2105 75.9421 99.5429 79.9623 97.9756C83.1524 96.7319 81.4704 92.6504 79.3061 94.003C78.2224 94.6801 79.0477 96.2032 78.9177 96.3705C76.7816 95.7266 77.3547 92.8856 79.2607 92.379C83.4765 91.26 85.0082 97.7847 80.2144 99.4892C75.4958 101.167 69.645 96.3626 67.277 92.5731C65.5669 89.8379 64.9906 86.9764 64.5458 83.8151C64.1245 80.8163 64.5552 76.5091 61.0848 75.2402C61.0456 74.9703 61.445 75.0871 61.6313 75.0839C62.4112 75.0697 62.9374 75.1739 63.5764 75.6474C64.0024 75.963 64.1057 76.5028 64.5254 76.5028C64.9577 70.5589 70.1524 64.4714 66.2466 58.6885C67.4477 58.6774 69.0624 61.228 69.0624 62.2349C69.0624 63.0099 69.1078 63.8337 69.0624 64.6008V64.5992ZM85.0458 36.4864C82.645 40.055 78.2083 45.3044 80.7672 49.8089C82.6888 53.1928 87.6611 53.196 89.6876 49.9083C92.4 45.5065 87.9555 39.9477 85.467 36.4864H85.0458Z" fill="url(#paint5_radial_160_18)"/>
<path d="M84.3629 121.331L94.4923 121.436L107.627 122.389C113.295 123.249 119.399 123.623 124.884 125.339C136.57 128.996 120.741 133.56 116.815 134.641C100.389 139.163 79.9999 139.491 63.2413 136.69C57.5987 135.746 50.3775 134.128 45.2251 131.668C34.8326 126.704 48.5703 124.409 52.758 123.694C63.1442 121.92 73.8561 121.556 84.3629 121.33V121.331ZM127.889 128.225C124.035 126.562 119.581 125.861 115.429 125.249C96.1336 122.405 72.0035 122.42 52.7595 125.588C51.6241 125.774 42.6411 127.409 42.6254 128.301C45.6965 130.743 50.0815 131.916 53.8542 132.908C71.6527 137.594 94.7774 137.763 112.745 133.851C116.309 133.074 125.018 130.951 127.632 128.671C127.792 128.53 127.959 128.516 127.89 128.225H127.889Z" fill="url(#paint6_radial_160_18)"/>
<path d="M47.0026 69.3294C47.1937 67.9673 48.8287 65.6504 50.2867 65.4673C49.7605 67.0835 50.163 68.8007 49.9343 70.3916C49.7527 71.659 48.6862 72.8774 48.3322 74.1385C48.0582 75.1155 48.0613 75.9646 48.0989 76.9763L48.9712 74.7824C49.8529 72.9832 52.4573 71.4743 53.7336 73.7423L51.7478 74.743C48.3714 76.6133 48.3275 79.4921 49.3439 82.8949L50.2867 85.1756C50.78 79.2696 56.7859 76.6022 58.2016 71.2928C50.4261 68.2088 55.8807 59.3656 59.597 55.2225C63.9805 59.6497 68.9246 69.6877 59.5923 71.6132C58.9925 74.2221 57.1304 76.326 55.295 78.1616C55.6145 78.3131 55.9559 77.9801 56.3239 77.9375C58.3786 77.7007 60.1702 78.5562 60.2986 80.7626C55.865 77.3646 51.9389 81.1383 51.5411 85.889C50.9444 93.0198 56.2707 98.5044 63.116 99.2083L60.8405 97.641C59.5751 96.3863 58.5289 93.951 59.1883 92.177C59.2697 91.9591 59.1381 91.9071 59.5171 91.9576C59.4702 95.9586 63.2945 98.8832 67.0265 99.0505L65.379 97.9535C64.1496 96.7272 63.3791 94.123 64.6789 92.7451C65.6796 96.5457 69.208 98.6811 72.8178 99.4466C69.6199 100.113 66.3202 100.637 63.0298 100.479C59.5657 100.313 53.9106 98.5817 50.7894 99.7954C49.1309 100.441 48.3557 102.622 47.0762 103.781C46.8022 103.849 46.8257 103.676 46.7661 103.473C46.5704 102.796 46.7395 102.237 46.8429 101.576C46.1601 101.896 45.3911 102.027 44.7052 102.337C43.9582 102.673 43.3912 103.239 42.6223 103.468C42.7695 100.854 44.2072 97.9393 47.1592 97.9488C46.4905 97.2922 45.756 96.5599 45.5947 95.5877C47.2939 94.9327 48.4873 95.3572 49.8216 96.451C50.3822 96.9103 51.0697 97.9094 51.8089 98.0751C53.0962 98.3655 55.14 97.9551 56.5479 98.4223L51.2263 94.5633C49.831 93.2234 48.5922 91.7303 47.474 90.1457C47.5868 89.9184 47.8561 90.1772 47.9971 90.2498C49.4958 91.0058 50.5701 92.5621 51.776 93.6937C51.7901 93.0671 51.2044 92.3569 50.9523 91.6861C49.4598 87.7198 48.4606 83.0749 47.048 79.0644C45.7858 75.4801 43.136 74.9166 39.6515 74.773C40.1385 72.8979 42.367 72.2035 44.0897 72.9027C45.8124 73.6019 46.2415 74.6593 46.965 76.1619C47.0684 76.3765 46.8648 76.5975 47.3174 76.5075C47.0841 75.6663 46.9415 74.8724 46.5046 74.0959C45.8516 72.9327 44.6034 72.254 43.9488 71.1523C43.4429 70.3016 43.1125 69.1447 43.0937 68.152C44.5783 68.223 45.565 69.5488 46.2509 70.7246L47.0042 72.8822C47.1154 71.7758 46.8538 70.4042 47.0042 69.3341L47.0026 69.3294ZM59.597 57.5868C57.6817 59.8801 54.8722 64.1099 55.8431 67.2003C56.717 69.9781 60.2767 71.0087 62.3408 68.8638C65.3226 65.7656 61.9211 60.1326 59.5954 57.5868H59.597ZM51.6946 98.2661C49.8842 98.0293 47.4568 98.5991 46.063 99.8396L48.8788 98.8153L51.6946 98.2661Z" fill="url(#paint7_radial_160_18)"/>
<path d="M111.306 94.7164C111.205 95.3209 110.253 96.8282 109.821 97.3191L107.239 99.2083C114.203 98.6196 120.088 92.2006 118.745 85.0114C118.184 82.0111 116.345 79.1891 112.949 79.5032C111.765 79.6136 111.066 80.2876 110.053 80.7611C110.355 78.6004 111.962 77.7039 114.029 77.9375C114.397 77.9785 114.739 78.3131 115.058 78.1616C113.281 76.2503 111.248 74.1543 110.823 71.4712C108.393 71.3354 106.319 69.7966 105.743 67.3676C104.675 62.8694 108.347 58.6206 110.834 55.2935C110.964 55.1641 111.144 55.4387 111.229 55.5334C114.214 58.8479 118.95 66.5958 114.264 70.2638C113.857 70.5826 112.374 71.2044 112.311 71.296C111.968 71.7916 113.19 73.8418 113.525 74.3484C114.671 76.0782 116.406 77.524 117.628 79.2001C118.903 80.9489 119.882 82.9849 120.068 85.1772L121.008 83.0512C122.083 79.7225 122.184 76.8327 118.92 74.9024C118.292 74.5315 117.594 74.331 116.981 74.0185C116.84 73.9459 116.723 74.058 116.776 73.7439C118.068 71.4917 120.5 72.9769 121.443 74.7225L122.411 77.1341C122.455 76.0688 122.39 74.9639 122.057 73.9459C121.686 72.8127 120.751 71.9304 120.575 70.7088C120.328 68.9853 120.881 67.1103 120.065 65.4689C120.511 65.1358 122.118 66.7457 122.408 67.1261C123.731 68.8638 123.541 70.974 123.352 73.0337L124.213 70.6725C124.774 69.5488 126.115 68.1962 127.418 68.1472C127.306 69.0974 127.051 70.0317 126.614 70.8825C125.621 72.8175 123.181 73.8923 123.195 76.5012L124.381 74.4652C126.209 72.0362 129.156 71.9352 130.857 74.5315C130.844 74.8077 128.995 74.9008 128.637 74.9703C123.114 76.0514 123.756 78.7314 122.262 83.2074C121.294 86.1084 120.142 90.1362 118.951 92.8004C118.817 93.1018 118.372 93.4696 118.579 93.6858C119.575 92.8304 120.466 91.5756 121.487 90.7833C121.609 90.6886 123.131 89.6438 122.879 90.294C120.499 93.7332 117.263 96.4447 113.65 98.4965C114.61 98.4113 115.581 98.2029 116.546 98.1035C117.189 98.0372 117.91 98.195 118.543 98.0656C120.189 97.7279 122.082 93.902 124.754 95.5861C124.686 96.5883 123.895 97.3206 123.194 97.9425C126.243 97.9741 127.651 100.722 127.731 103.462C127.618 103.594 126.354 102.608 126.116 102.49C125.353 102.106 124.459 101.887 123.665 101.573C123.617 101.92 123.822 103.784 123.43 103.776C122.262 102.766 121.543 101.055 120.301 100.154C117.781 98.3244 110.671 100.31 107.48 100.474C104.186 100.645 100.929 100.02 97.6965 99.5192L100.617 98.446C102.896 97.4422 105.167 95.2515 105.676 92.7404C106.078 92.6757 105.918 92.783 106.001 92.9629C106.658 94.3818 106.371 96.4715 105.284 97.63L103.485 99.0457C107.225 98.7553 110.739 96.0943 110.913 92.1075C111.052 91.8439 111.307 92.1217 111.307 92.1896C111.307 92.914 111.415 94.063 111.307 94.7117L111.306 94.7164ZM110.914 57.5868C109.041 60.0111 106.122 63.9568 107.163 67.1971C108.523 71.4207 114.385 70.671 114.753 66.3401C115.03 63.084 112.798 60.0237 110.914 57.5868ZM124.133 99.6818C122.727 98.5186 120.438 97.9851 118.658 98.2661L121.852 98.9084L124.133 99.6834V99.6818Z" fill="url(#paint8_radial_160_18)"/>
<path d="M133.521 110.247C132.078 109.791 130.741 108.98 129.291 108.441C119.745 104.892 106.844 103.819 96.677 103.309C80.4994 102.499 61.7895 102.943 46.0301 106.983C42.9339 107.777 39.6436 108.744 36.9093 110.405C36.477 108.421 37.0768 108.273 38.6037 107.54C43.9519 104.977 52.1534 103.53 58.0544 102.703C75.4347 100.264 94.9371 100.222 112.3 102.703C119.427 103.721 127.051 105.14 133.445 108.512L133.521 110.249V110.247Z" fill="url(#paint9_radial_160_18)"/>
<path d="M85.2556 74.6151C87.2555 77.6139 89.7064 80.9615 88.6101 84.7731C88.1012 86.5471 86.7935 88.0228 85.2274 88.9383C79.2795 85.2845 81.685 79.0344 85.254 74.6151H85.2556Z" fill="url(#paint10_radial_160_18)"/>
<path d="M85.3323 70.1975C85.1115 70.1596 85.1037 70.4768 85.0661 70.6347C84.6307 72.4434 84.4585 74.2869 83.0647 75.7136C82.327 74.0264 81.3341 72.4229 79.6882 71.5153C80.9285 68.2656 84.081 66.146 85.1789 62.7857L90.787 71.3591C89.2428 72.5618 88.1748 73.9696 87.2884 75.7121C86.0512 74.1606 85.5077 72.1656 85.3308 70.1975H85.3323Z" fill="url(#paint11_radial_160_18)"/>
<path d="M89.0878 89.2744C91.0078 87.7877 92.1526 85.8306 92.3703 83.3605C92.588 80.8905 91.9255 77.554 93.9364 75.7926C94.9089 74.9403 96.5705 74.3926 97.8516 74.6877L96.8289 76.8153C96.1304 79.9482 96.439 83.5783 94.5362 86.3309C93.3773 88.0071 91.1691 89.3376 89.0878 89.2744Z" fill="url(#paint12_radial_160_18)"/>
<path d="M81.4203 89.1198C81.4626 89.3723 81.2057 89.276 81.0288 89.2792C78.938 89.3202 76.5075 87.4799 75.5068 85.6964C73.8514 82.7466 74.4841 79.964 73.6776 76.9763C73.4396 76.0956 73.0292 75.4185 72.6596 74.6136C74.3307 74.6073 76.484 75.1896 77.3281 76.7664C78.4698 78.8971 77.7885 82.4751 78.4009 84.9878C78.7955 86.6071 79.8949 88.3827 81.4187 89.1213L81.4203 89.1198Z" fill="url(#paint13_radial_160_18)"/>
<path d="M94.721 70.6725C94.1008 71.8247 94.2543 73.0795 94.2543 74.3437C89.8238 76.6701 92.4063 82.1374 90.7306 85.9647C90.148 87.2953 88.5992 88.9493 87.0535 88.9588C89.9444 86.5976 90.5912 82.8413 89.2742 79.3911C88.773 78.0779 87.871 77.6881 88.3862 76.1919C89.2334 73.736 92.0994 70.933 94.7194 70.6725H94.721Z" fill="url(#paint14_radial_160_18)"/>
<path d="M83.4546 89.1182C81.7695 88.6763 80.2363 87.3 79.6256 85.6475C78.2302 81.8753 80.4822 76.6196 76.1849 74.3058C76.4292 72.9848 76.2131 71.902 75.7918 70.6694C78.2505 71.0119 80.9082 73.4377 81.8118 75.7168C82.5776 77.6471 81.9308 77.4403 81.3482 79.0281C80.0875 82.4641 80.0625 85.215 82.5228 88.0876C82.8454 88.4648 83.3841 88.6384 83.4562 89.1166L83.4546 89.1182Z" fill="url(#paint15_radial_160_18)"/>
<path d="M105.359 118.052C105.397 118.183 105.813 118.386 105.829 118.603L103.17 118.445C103.262 118.186 103.571 118.037 103.677 117.775C103.908 117.204 103.919 109.297 103.8 108.273C103.732 107.701 103.425 107.58 103.327 107.095C105.212 107.409 107.856 106.955 109.088 108.776C110.216 110.443 109.514 113.235 107.394 113.56V113.792L110.524 118.997C107.625 119.497 107.27 115.834 105.965 114.131C105.809 113.926 105.596 113.801 105.361 113.716C105.564 114.837 105.087 117.084 105.361 118.052H105.359ZM105.359 112.927C108.175 113.705 109.135 109.169 106.492 108.397C106.207 108.314 105.528 108.148 105.359 108.433V112.927Z" fill="url(#paint16_radial_160_18)"/>
<path d="M134.305 107.408C134.811 105.552 135.249 98.6638 131.792 99.7528C129.518 100.469 131.638 104.136 132.741 101.259C134.241 102.878 131.826 104.414 130.312 103.152C127.999 101.225 130.603 97.1628 133.79 98.386C135.104 98.8895 135.498 99.7812 135.865 101.027C135.932 101.254 135.769 101.304 136.18 101.259C136.465 99.2288 136.512 97.2922 135.555 95.4251C136.058 95.4504 136.516 95.9286 136.786 96.3137C136.996 96.6136 136.805 97.1155 137.274 97.0018C137.372 95.9491 138.02 94.4466 138.756 93.6842C139.005 93.427 140.262 92.4768 139.963 93.3212C139.754 93.9147 139.376 94.5491 139.149 95.1852C138.037 98.3087 136.78 104.472 134.964 106.893C134.791 107.125 134.664 107.461 134.304 107.408H134.305Z" fill="url(#paint17_radial_160_18)"/>
<path d="M61.8647 117.894C61.9085 118.096 62.5444 118.707 62.4911 118.759L59.8319 119.074C59.7771 119.033 60.2219 118.489 60.2626 118.328C60.5053 117.353 60.4505 110.299 60.3049 109.06C60.2375 108.489 59.9306 108.367 59.8319 107.883C61.2445 107.911 63.0925 107.4 64.4299 107.898C66.4173 108.637 66.4768 111.573 65.0704 112.927C64.7431 113.241 63.9491 113.407 64.0775 113.917C64.7823 114.818 65.2474 115.897 65.8958 116.827C66.2888 117.389 66.7414 117.851 67.1846 118.366C66.5034 118.615 65.7031 118.754 65.0673 118.292C64.195 117.659 62.9735 114.36 62.3361 113.948C62.0792 113.782 62.0276 113.94 61.8631 114.109C62.0213 115.197 61.6486 116.893 61.8631 117.894H61.8647ZM61.8647 108.67V113.006C61.9774 113.151 62.026 113.211 62.2202 113.216C65.119 113.274 65.2819 107.895 61.8647 108.67Z" fill="url(#paint18_radial_160_18)"/>
<path d="M33.3887 97.1597C33.4514 96.3642 33.9353 95.5451 34.7982 95.5845C33.7661 97.458 33.9509 99.5255 34.1733 101.574C34.5977 101.295 34.5507 100.665 34.77 100.206C36.5021 96.5678 41.584 98.4176 40.8636 101.932C40.566 103.388 38.6366 104.48 37.531 103.154C37.0674 102.599 36.8936 101.915 37.5357 101.418C39.5747 104.363 40.6788 99.6613 38.0039 99.666C34.8561 99.6707 35.8396 105.6 35.8913 107.564C35.1772 106.981 34.7214 105.926 34.3659 105.083C32.7592 101.273 32.294 96.8692 30.4194 93.135C31.5783 93.0766 32.507 94.8806 32.886 95.8512C33.0614 96.2995 32.9737 96.9371 33.3887 97.1565V97.1597Z" fill="url(#paint19_radial_160_18)"/>
<path d="M83.2996 90.223C81.9621 91.6167 78.8378 91.7555 77.0337 91.413C72.193 90.4929 72.1898 85.7564 69.5322 82.5777C70.3168 81.8643 72.6518 82.1437 73.3707 82.8065C73.7857 83.1901 74.0629 84.7731 74.3541 85.4407C75.8842 88.9367 79.588 90.8385 83.2996 90.223Z" fill="url(#paint20_radial_160_18)"/>
<path d="M87.055 90.3777C87.0159 90.1094 87.4184 90.2214 87.6016 90.2198C88.6008 90.212 89.3196 90.3808 90.3767 90.182C93.0484 89.6785 95.0953 87.7514 96.1539 85.2829C96.356 84.8126 96.832 82.9739 96.9479 82.8492C97.5368 82.2163 100.263 81.8248 100.977 82.5777C100.586 83.1964 100.085 83.643 99.6995 84.2823C98.8993 85.6112 98.4592 87.311 97.5994 88.6305C95.3521 92.087 90.3861 92.1817 87.0535 90.3761L87.055 90.3777Z" fill="url(#paint21_radial_160_18)"/>
<path d="M91.9835 106.304C94.057 106.551 95.2096 108.086 95.0311 110.166C94.84 112.406 92.8276 113.486 90.8105 113.085C90.9937 114.6 90.3532 116.543 91.2787 117.815H88.6195C88.997 117.368 89.1771 117.076 89.246 116.475C89.365 115.424 89.3666 107.565 89.1285 106.975C89.022 106.712 88.7119 106.565 88.6211 106.304C89.6907 106.396 90.9389 106.18 91.985 106.304H91.9835ZM90.8089 112.297C94.4359 112.793 94.2637 106.843 90.8089 107.251V112.297Z" fill="url(#paint22_radial_160_18)"/>
<path d="M72.1757 106.951L74.8443 116.641L75.6321 117.973L72.9744 118.131C73.0355 117.704 73.3096 117.638 73.2955 117.117C73.2877 116.858 72.7521 114.598 72.6409 114.526C71.7325 114.545 70.6613 114.314 69.8407 114.774C69.7718 114.89 69.2237 117.28 69.2331 117.435C69.255 117.824 69.7483 117.883 69.6888 118.288L67.6576 118.446C67.7312 118.009 68.0601 117.84 68.2418 117.381C69.0671 115.287 69.6872 111.77 70.2401 109.461C70.428 108.678 70.5783 107.881 70.6974 107.084L72.1773 106.951H72.1757ZM72.3464 113.557L71.0967 109.302L70.1571 113.715C70.8665 113.482 71.6088 113.565 72.3464 113.557Z" fill="url(#paint23_radial_160_18)"/>
<path d="M129.297 122.072L126.794 121.598C127.382 120.503 126.78 118.932 126.373 117.812L123.831 117.512C123.778 118.655 122.711 119.971 123.509 120.968L121.476 120.653C121.385 120.53 121.924 120.298 122.015 120.173C122.641 119.325 124.279 113.129 124.682 111.666C124.81 111.2 124.956 110.741 124.916 110.247C125.306 110.255 126.309 110.291 126.454 110.67L128.594 120.498L129.298 122.073L129.297 122.072ZM126.324 116.868C125.914 115.588 125.787 114.229 125.461 112.929C125.416 112.75 125.471 112.416 125.231 112.455L124.133 116.552L126.324 116.868Z" fill="url(#paint24_radial_160_18)"/>
<path d="M59.0473 118.923L58.9533 119.232L56.5447 119.55C56.8689 118.951 56.4883 116.68 56.1563 116.235C55.8713 115.85 53.8918 116.305 53.4157 116.477C53.0837 117.592 52.4729 118.926 53.1009 120.023L51.2248 120.339C51.2498 119.952 51.5787 119.717 51.7259 119.346C51.8809 118.95 52.0015 118.43 52.1174 118.006C52.9318 115.039 53.4235 111.816 54.1314 108.809C54.4994 108.692 55.2605 108.5 55.5299 108.825L58.5728 118.692L59.0457 118.921L59.0473 118.923ZM55.7648 115.133L54.5151 111.036L53.5754 115.449L55.7664 115.133H55.7648Z" fill="url(#paint25_radial_160_18)"/>
<path d="M98.4764 117.185C99.9501 117.143 101.125 117.787 101.997 116.24C102.133 116.589 101.959 118.358 101.671 118.429L96.2871 118.131C96.215 117.764 96.6426 117.681 96.724 117.39C97.092 116.088 97.0936 109.324 96.9151 107.799C96.8477 107.228 96.5408 107.106 96.4421 106.622L101.762 106.936V108.828C100.998 107.644 99.745 107.706 98.4764 107.725V111.51C99.3989 111.57 100.122 111.527 100.979 111.196L100.822 112.929C100.226 112.288 99.2939 112.409 98.4764 112.297V117.185Z" fill="url(#paint26_radial_160_18)"/>
<path d="M116.468 110.561C116.298 110.755 115.417 109.475 115.119 109.321C114.081 108.784 112.98 109.262 113.013 110.485C113.072 112.644 116.998 113.295 117.103 116.312C117.194 118.962 115.28 120.113 112.864 119.477C110.69 118.906 111.584 118.284 111.464 116.396C112.015 116.874 112.176 117.671 112.79 118.132C114.023 119.057 115.714 118.664 115.7 116.947C115.678 114.229 109.79 113.121 111.899 109.347C112.847 107.652 114.9 107.936 116.399 108.664L116.469 110.563L116.468 110.561Z" fill="url(#paint27_radial_160_18)"/>
<path d="M42.934 111.982C42.4093 111.95 41.6905 112.12 41.2551 112.419C40.7493 112.764 40.9341 113.238 40.4314 113.243L40.6005 111.364L46.8476 110.174L46.8444 111.824C46.0943 111.134 45.3833 111.188 44.4891 111.604V120.582L44.9667 121.597L42.4641 122.07C42.3263 121.945 42.9324 121.257 42.9324 121.046V111.98L42.934 111.982Z" fill="url(#paint28_radial_160_18)"/>
<path d="M40.4329 85.8069L40.4298 84.7037L40.1166 85.6491C39.8175 85.9537 39.5434 83.3684 39.4901 83.1269C39.2286 83.0843 39.3194 83.5105 39.3288 83.6825C39.3696 84.3738 39.6123 85.073 39.4901 85.8069L38.5552 84.2318L39.0235 85.9632C38.6554 86.001 38.4581 85.6301 38.2686 85.3855C36.6524 83.3006 37.318 80.548 38.9452 78.714C41.2457 80.4328 42.6928 83.4063 40.4329 85.8069Z" fill="url(#paint29_radial_160_18)"/>
<path d="M131.018 83.1269L130.547 85.6491L130.081 84.8615V85.728L129.77 85.8053C128.103 83.1143 129.027 80.2702 131.641 78.7108C132.803 80.4028 133.63 82.4135 132.72 84.4448C132.642 84.62 131.865 85.9032 131.798 85.9616C131.665 86.0768 131.458 86.0247 131.492 85.7343C131.56 85.1756 131.984 84.5301 131.956 83.9145L131.173 85.6475H130.943C130.722 85.6222 131.019 85.4486 131.019 85.4123V83.1254L131.018 83.1269Z" fill="url(#paint30_radial_160_18)"/>
<path d="M132.582 87.8555C132.518 87.4989 132.601 87.6046 132.781 87.5052C133.173 87.2874 133.851 87.1516 134.302 87.068C134.335 86.7728 133.973 86.9386 133.802 86.9575C133.613 86.978 132.402 87.3458 132.429 86.9906L133.834 85.9679C133.483 85.9142 132.07 86.9543 131.956 86.3562C132.983 83.9761 135.264 83.3211 137.588 84.3123C138.996 84.912 138.432 85.5086 137.586 86.514C136.192 88.1712 134.628 88.4679 132.582 87.8555Z" fill="url(#paint31_radial_160_18)"/>
<path d="M36.5209 85.9663L38.0838 87.0664C37.6093 87.169 37.1645 86.9685 36.7339 86.9291C36.5585 86.9133 36.1716 86.7839 36.2076 87.0664C36.6587 87.15 37.3368 87.2874 37.7283 87.5036C37.91 87.6046 37.9914 87.4973 37.9288 87.8555C35.0738 88.7599 33.0661 87.5557 31.8446 84.9357C33.8742 83.5436 36.2828 83.3495 37.9256 85.4155C39.4369 87.3158 37.5607 86.1636 36.5224 85.9647L36.5209 85.9663Z" fill="url(#paint32_radial_160_18)"/>
<path d="M120.691 120.495L118.189 120.179C118.057 119.752 118.45 119.942 118.554 119.676C118.619 119.508 118.641 119.335 118.658 119.157C118.787 117.869 118.857 110.345 118.588 109.448C118.538 109.281 118.14 108.864 118.189 108.828L120.688 109.379C120.577 109.51 120.398 109.657 120.34 109.815C120.143 110.357 120.102 119.122 120.29 119.715C120.384 120.01 120.737 120.152 120.69 120.495H120.691Z" fill="url(#paint33_radial_160_18)"/>
<path d="M47.0026 83.2864C46.2525 85.8022 44.7757 87.9502 41.8408 87.3836C41.4133 87.0632 42.8682 86.8549 42.7773 86.5976C42.5362 86.4114 41.6372 87.1753 41.6842 86.6766L43.2472 85.335L41.216 86.4366C40.9435 85.8006 41.1267 85.3887 41.3914 84.8015C42.4469 82.4514 44.8869 82.5524 47.0042 83.2848L47.0026 83.2864Z" fill="url(#paint34_radial_160_18)"/>
<path d="M127.732 85.6507L128.827 86.7507L127.576 86.5156L128.827 87.3821C125.748 87.8571 124.403 86.0137 123.509 83.3684C125.014 82.5367 127.38 82.5004 128.553 83.954C128.819 84.2838 129.848 86.3925 129.218 86.4335L127.731 85.6507H127.732Z" fill="url(#paint35_radial_160_18)"/>
<path d="M50.4433 109.302C50.3446 109.788 50.0377 109.909 49.9703 110.479C49.7417 112.428 49.7855 117.165 49.9672 119.161C49.9891 119.401 49.9829 119.598 50.0878 119.83C50.2601 120.212 50.7111 120.051 50.5999 120.493L48.0973 120.967C48.138 120.575 48.3635 120.38 48.4137 119.947C48.5483 118.797 48.5812 111.199 48.3401 110.395C48.2884 110.225 47.8922 109.813 47.9407 109.775L50.4433 109.302Z" fill="url(#paint36_radial_160_18)"/>
<path d="M130.078 89.4339L129.925 91.3247L130.703 89.5917L131.016 91.7982L131.251 89.5917C132.448 91.4036 132.639 93.0087 131.517 94.9043C130.5 96.6215 129.989 96.9182 129.007 95.0084C127.92 92.8951 128.312 91.4446 129.721 89.6327C129.821 89.5049 129.717 89.3423 130.078 89.4339Z" fill="url(#paint37_radial_160_18)"/>
<path d="M38.0838 88.3306C38.4002 88.5863 37.1911 88.9998 37.1473 89.1971L38.5536 88.8025L37.6156 90.062L38.7901 89.276C38.8402 89.7543 38.3767 90.7975 38.112 91.2742C37.0862 93.1224 35.351 93.3433 33.3903 93.2186C33.3496 90.3019 34.9344 87.9455 38.0838 88.3306Z" fill="url(#paint38_radial_160_18)"/>
<path d="M39.4917 89.5917L39.3382 91.7982L39.8081 89.5917L40.1401 90.122L40.5864 91.6403L40.5097 89.4339C42.4704 91.4478 42.5769 94.688 40.1965 96.3768C39.866 96.38 38.7055 94.6486 38.5254 94.2714C37.9256 93.015 38.0024 92.289 38.4785 91.0122C38.5364 90.8559 39.2161 89.2808 39.4933 89.5917H39.4917Z" fill="url(#paint39_radial_160_18)"/>
<path d="M131.646 89.276L133.052 90.2198L131.961 89.0393C132.326 88.55 132.918 89.3234 133.365 89.2744C133.364 88.9272 132.142 88.6715 132.427 88.3306C132.556 88.1775 133.76 88.3369 134.001 88.4001C136.202 88.9635 137.22 91.0516 136.895 93.2265C136.715 93.4901 135.398 93.2486 135.052 93.1744C132.954 92.7215 132.036 91.3168 131.647 89.276H131.646Z" fill="url(#paint40_radial_160_18)"/>
<path d="M78.0344 109.671C78.2318 109.485 78.9302 109.077 79.1886 109.022C83.4922 108.105 83.5674 116.298 79.4674 115.924C76.8098 115.683 76.354 111.257 78.0344 109.671ZM79.3437 109.805C78.0673 110.187 78.0564 114.663 79.4987 115.103C81.887 115.834 81.9449 109.025 79.3437 109.805Z" fill="url(#paint41_radial_160_18)"/>
<path d="M42.4641 89.7479L41.3694 88.722C41.3037 88.3969 41.5214 88.4553 41.75 88.4948C42.2057 88.5753 42.4861 88.9367 42.9324 88.9588L41.6811 88.1696C41.7625 87.24 43.8893 87.8445 44.4499 88.1396C45.2236 88.5484 46.8993 91.1084 46.6753 91.8566C46.4169 92.7183 43.2644 92.1912 42.5095 91.6719C42.1039 91.3925 40.8401 89.6106 40.8981 89.2003C40.9873 88.5595 42.1838 89.8632 42.4626 89.7479H42.4641Z" fill="url(#paint42_radial_160_18)"/>
<path d="M128.827 87.7009L128.046 88.6447L129.14 88.5674L128.046 89.7495L129.377 88.9635C129.58 89.6564 128.711 90.9475 128.208 91.4115C127.161 92.3806 125.15 92.5731 123.888 91.9639C124.198 89.276 125.914 87.2226 128.827 87.7025V87.7009Z" fill="url(#paint43_radial_160_18)"/>
<path d="M63.1175 91.9576C61.1177 92.4153 58.8484 91.4983 59.0504 89.1198L59.6753 89.276L59.5203 88.8057L60.1451 88.8025L59.68 88.4095C60.1843 87.8603 61.3291 88.3669 61.8569 88.7347C62.9155 89.4717 63.0894 90.7423 63.1191 91.9576H63.1175Z" fill="url(#paint44_radial_160_18)"/>
<path d="M110.366 88.801L110.837 88.8041L110.679 89.2744L111.152 89.1861C111.813 91.2789 109.018 92.5889 107.303 91.8076C107.225 90.5308 107.882 88.771 109.185 88.3212C109.638 88.1649 110.311 87.9802 110.676 88.408L110.366 88.801Z" fill="url(#paint45_radial_160_18)"/>
<path d="M86.5852 109.144V110.405C86.0324 109.794 85.4717 109.912 84.7075 109.931L84.7795 111.832C85.0567 112.258 85.951 111.546 86.1154 111.666L86.2689 112.851C85.8805 112.965 84.9815 111.952 84.731 112.715C84.6401 112.993 84.673 114.221 84.7216 114.57C84.792 115.07 85.1585 115.342 85.099 115.768H83.1445C83.1727 115.558 83.4531 115.468 83.5329 115.291C83.677 114.974 83.6927 110.575 83.605 110.02C83.5423 109.622 83.3199 109.458 83.1445 109.144H86.5868H86.5852Z" fill="url(#paint46_radial_160_18)"/>
<path d="M114.275 93.5327C112.36 93.0103 110.919 91.2615 111.857 89.2744L112.397 89.5885C112.729 88.6005 113.338 88.9351 113.968 89.508C115.191 90.6239 114.804 92.1501 114.275 93.5311V93.5327Z" fill="url(#paint47_radial_160_18)"/>
<path d="M58.424 86.7539V86.1226L58.0341 86.7539L57.6425 86.1226L57.5642 87.0664C55.7539 85.8527 55.8384 83.703 57.2479 82.1973C58.092 82.805 59.1804 83.722 59.3308 84.8252C59.3981 85.3129 59.182 86.9464 58.4224 86.7555L58.424 86.7539Z" fill="url(#paint48_radial_160_18)"/>
<path d="M63.2663 84.5537C63.116 86.0657 62.4238 87.8855 60.6917 88.0165C60.3346 88.0434 59.9149 88.1049 59.6784 87.7782L60.1436 87.5399L59.6753 87.3821L60.1451 86.7539L59.2071 87.0664C59.2854 84.751 61.2163 83.9619 63.2679 84.5522L63.2663 84.5537Z" fill="url(#paint49_radial_160_18)"/>
<path d="M57.641 88.9619L57.4859 89.5917L57.8759 89.2776L57.9542 89.9073C58.269 89.8032 58.1186 88.9193 58.6542 89.437C59.4153 91.3689 57.9793 92.8209 56.3192 93.5327C55.0476 91.9986 55.4218 89.1703 57.6378 88.9635L57.641 88.9619Z" fill="url(#paint50_radial_160_18)"/>
<path d="M110.469 85.073C110.905 85.5118 111.201 86.4493 111.148 87.0696L110.368 86.7555L110.679 87.3852L110.213 87.3063L110.678 87.7798C110.687 88.2186 109.204 87.8729 108.958 87.7798C107.785 87.3394 107.248 85.8038 107.069 84.6469C107.942 84.115 109.741 84.3375 110.471 85.073H110.469Z" fill="url(#paint51_radial_160_18)"/>
<path d="M113.182 86.9101C114.013 86.5787 114.194 86.0152 115.277 86.132C115.758 86.1841 117.415 86.9575 117.412 87.461C117.407 88.2912 115.232 89.3865 114.367 89.2681C113.254 89.115 112.513 88.0939 114.278 88.0923L113.182 87.7766L113.497 87.6204L113.022 87.461C113.08 87.2968 113.108 87.0553 113.182 86.9117C113.035 86.9701 112.917 87.1153 112.714 87.0696L112.867 85.9679C112.508 86.0831 112.646 86.8549 112.086 86.7539L112.241 85.8101L111.697 86.7539C110.994 86.1541 110.993 84.8078 111.328 84.0203C111.503 83.6083 112.707 82.3394 113.102 82.3331C113.725 82.3252 114.277 84.2475 114.273 84.7842C114.267 86.0405 113.566 86.1526 113.18 86.9117L113.182 86.9101Z" fill="url(#paint52_radial_160_18)"/>
<path d="M57.3278 87.5415L56.3912 87.3868C56.4523 87.8145 57.3325 87.4531 57.1712 88.015L56.078 88.1712L57.3262 88.5674C55.8196 89.9594 53.8526 89.0803 52.9866 87.461C53.9356 86.1889 55.6693 85.5165 56.9347 86.757C57.179 86.9969 57.4045 87.1248 57.3278 87.5415Z" fill="url(#paint53_radial_160_18)"/>
<path d="M84.98 89.931C86.8232 89.5964 87.4559 93.367 85.2305 93.8215C83.3857 93.4648 83.3606 90.2246 84.98 89.931Z" fill="url(#paint54_radial_160_18)"/>
<path d="M39.6107 86.1494C41.4838 85.8369 41.9097 88.9698 39.8597 89.0724C38.2028 89.1545 37.7659 86.4587 39.6107 86.1494Z" fill="url(#paint55_radial_160_18)"/>
<path d="M130.351 86.1494C132.578 85.6917 132.788 89.7558 130.07 88.8893C128.852 88.5011 129.132 86.4003 130.351 86.1494Z" fill="url(#paint56_radial_160_18)"/>
<path d="M85.1021 95.2673C86.698 96.3374 86.5946 98.2376 85.2556 99.5208C83.7177 98.2298 83.8007 96.7114 85.1021 95.2673Z" fill="url(#paint57_radial_160_18)"/>
<path d="M112.516 87.2668C113.061 87.7861 112.787 88.9635 111.852 88.9635C110.084 88.9635 111.309 86.1163 112.516 87.2668Z" fill="url(#paint58_radial_160_18)"/>
<path d="M57.8367 88.7615C56.8501 87.8177 58.4146 86.3167 59.2149 87.4499C59.8899 88.4048 58.5822 89.4749 57.8367 88.7615Z" fill="url(#paint59_radial_160_18)"/>
<path d="M51.6946 98.2661L48.8788 98.8153L46.063 99.8396C47.4568 98.5991 49.8842 98.0293 51.6946 98.2661Z" fill="url(#paint60_radial_160_18)"/>
<path d="M124.133 99.6818L121.852 98.9068L118.658 98.2645C120.438 97.9835 122.727 98.517 124.133 99.6802L124.133 99.6818Z" fill="url(#paint61_radial_160_18)"/>
<path d="M85.2556 124.914C87.5859 126.829 88.1215 130.882 85.2509 132.477C82.4273 130.607 83.0615 127.051 85.2556 124.914Z" fill="url(#paint62_radial_160_18)"/>
<path d="M86.1154 132.951C86.1123 132.26 86.8013 132.005 87.1412 131.384C87.8553 130.075 87.4622 128.86 89.1379 128.192C90.1981 127.769 91.0015 127.899 91.9052 128.62C91.96 128.852 91.0971 129.55 90.9013 129.813C89.567 131.606 89.0173 133.685 86.1154 132.952V132.951Z" fill="url(#paint63_radial_160_18)"/>
<path d="M80.1377 127.94C80.9426 127.858 82.0326 128.266 82.5181 128.929C82.9738 129.551 82.9926 130.405 83.3184 131.118C83.5408 131.603 83.8524 131.917 84.1578 132.323C84.5869 132.892 84.0889 133.063 83.5141 133.102C81.0178 133.271 80.1674 129.949 78.6076 128.617C78.6107 128.386 79.8871 127.967 80.1361 127.941L80.1377 127.94Z" fill="url(#paint64_radial_160_18)"/>
<path d="M84.2878 135.584C83.1571 134.34 84.9706 132.427 86.1843 133.75C87.398 135.072 85.3198 136.72 84.2878 135.584Z" fill="url(#paint65_radial_160_18)"/>
</g>
<defs>
<linearGradient id="paint0_linear_160_18" x1="85.2149" y1="64.0504" x2="85.2149" y2="183.642" gradientUnits="userSpaceOnUse">
<stop stop-color="#041028"/>
<stop offset="1" stop-color="#00081B"/>
</linearGradient>
<linearGradient id="paint1_linear_160_18" x1="85.2149" y1="63.6079" x2="85.2149" y2="201.625" gradientUnits="userSpaceOnUse">
<stop stop-color="#C39746" stop-opacity="0"/>
<stop offset="1" stop-color="#C39746"/>
</linearGradient>
<linearGradient id="paint2_linear_160_18" x1="85.265" y1="52.361" x2="85.265" y2="36.4849" gradientUnits="userSpaceOnUse">
<stop stop-color="#122949"/>
<stop offset="1" stop-color="#1C4098"/>
</linearGradient>
<linearGradient id="paint3_linear_160_18" x1="59.5766" y1="70.0128" x2="59.5766" y2="57.5868" gradientUnits="userSpaceOnUse">
<stop stop-color="#122949"/>
<stop offset="1" stop-color="#1C406B"/>
</linearGradient>
<linearGradient id="paint4_linear_160_18" x1="110.861" y1="70.0049" x2="110.861" y2="57.5868" gradientUnits="userSpaceOnUse">
<stop stop-color="#122949"/>
<stop offset="1" stop-color="#1C406B"/>
</linearGradient>
<radialGradient id="paint5_radial_160_18" cx="0" cy="0" r="1" gradientUnits="userSpaceOnUse" gradientTransform="translate(85.2142 86.1361) rotate(90) scale(52.3486 54.7948)">
<stop stop-color="#D9BE77"/>
<stop offset="1" stop-color="#A5803C"/>
</radialGradient>
<radialGradient id="paint6_radial_160_18" cx="0" cy="0" r="1" gradientUnits="userSpaceOnUse" gradientTransform="translate(85.2142 86.1361) rotate(90) scale(52.3486 54.7948)">
<stop stop-color="#D9BE77"/>
<stop offset="1" stop-color="#A5803C"/>
</radialGradient>
<radialGradient id="paint7_radial_160_18" cx="0" cy="0" r="1" gradientUnits="userSpaceOnUse" gradientTransform="translate(85.2142 86.1361) rotate(90) scale(52.3486 54.7948)">
<stop stop-color="#D9BE77"/>
<stop offset="1" stop-color="#A5803C"/>
</radialGradient>
<radialGradient id="paint8_radial_160_18" cx="0" cy="0" r="1" gradientUnits="userSpaceOnUse" gradientTransform="translate(85.2142 86.1361) rotate(90) scale(52.3486 54.7948)">
<stop stop-color="#D9BE77"/>
<stop offset="1" stop-color="#A5803C"/>
</radialGradient>
<radialGradient id="paint9_radial_160_18" cx="0" cy="0" r="1" gradientUnits="userSpaceOnUse" gradientTransform="translate(85.2142 86.1361) rotate(90) scale(52.3486 54.7948)">
<stop stop-color="#D9BE77"/>
<stop offset="1" stop-color="#A5803C"/>
</radialGradient>
<radialGradient id="paint10_radial_160_18" cx="0" cy="0" r="1" gradientUnits="userSpaceOnUse" gradientTransform="translate(85.2142 86.1361) rotate(90) scale(52.3486 54.7948)">
<stop stop-color="#D9BE77"/>
<stop offset="1" stop-color="#A5803C"/>
</radialGradient>
<radialGradient id="paint11_radial_160_18" cx="0" cy="0" r="1" gradientUnits="userSpaceOnUse" gradientTransform="translate(85.2142 86.1361) rotate(90) scale(52.3486 54.7948)">
<stop stop-color="#D9BE77"/>
<stop offset="1" stop-color="#A5803C"/>
</radialGradient>
<radialGradient id="paint12_radial_160_18" cx="0" cy="0" r="1" gradientUnits="userSpaceOnUse" gradientTransform="translate(85.2142 86.1361) rotate(90) scale(52.3486 54.7948)">
<stop stop-color="#D9BE77"/>
<stop offset="1" stop-color="#A5803C"/>
</radialGradient>
<radialGradient id="paint13_radial_160_18" cx="0" cy="0" r="1" gradientUnits="userSpaceOnUse" gradientTransform="translate(85.2142 86.1361) rotate(90) scale(52.3486 54.7948)">
<stop stop-color="#D9BE77"/>
<stop offset="1" stop-color="#A5803C"/>
</radialGradient>
<radialGradient id="paint14_radial_160_18" cx="0" cy="0" r="1" gradientUnits="userSpaceOnUse" gradientTransform="translate(85.2142 86.1361) rotate(90) scale(52.3486 54.7948)">
<stop stop-color="#D9BE77"/>
<stop offset="1" stop-color="#A5803C"/>
</radialGradient>
<radialGradient id="paint15_radial_160_18" cx="0" cy="0" r="1" gradientUnits="userSpaceOnUse" gradientTransform="translate(85.2142 86.1361) rotate(90) scale(52.3486 54.7948)">
<stop stop-color="#D9BE77"/>
<stop offset="1" stop-color="#A5803C"/>
</radialGradient>
<radialGradient id="paint16_radial_160_18" cx="0" cy="0" r="1" gradientUnits="userSpaceOnUse" gradientTransform="translate(85.2142 86.1361) rotate(90) scale(52.3486 54.7948)">
<stop stop-color="#D9BE77"/>
<stop offset="1" stop-color="#A5803C"/>
</radialGradient>
<radialGradient id="paint17_radial_160_18" cx="0" cy="0" r="1" gradientUnits="userSpaceOnUse" gradientTransform="translate(85.2142 86.1361) rotate(90) scale(52.3486 54.7948)">
<stop stop-color="#D9BE77"/>
<stop offset="1" stop-color="#A5803C"/>
</radialGradient>
<radialGradient id="paint18_radial_160_18" cx="0" cy="0" r="1" gradientUnits="userSpaceOnUse" gradientTransform="translate(85.2142 86.1361) rotate(90) scale(52.3486 54.7948)">
<stop stop-color="#D9BE77"/>
<stop offset="1" stop-color="#A5803C"/>
</radialGradient>
<radialGradient id="paint19_radial_160_18" cx="0" cy="0" r="1" gradientUnits="userSpaceOnUse" gradientTransform="translate(85.2142 86.1361) rotate(90) scale(52.3486 54.7948)">
<stop stop-color="#D9BE77"/>
<stop offset="1" stop-color="#A5803C"/>
</radialGradient>
<radialGradient id="paint20_radial_160_18" cx="0" cy="0" r="1" gradientUnits="userSpaceOnUse" gradientTransform="translate(85.2142 86.1361) rotate(90) scale(52.3486 54.7948)">
<stop stop-color="#D9BE77"/>
<stop offset="1" stop-color="#A5803C"/>
</radialGradient>
<radialGradient id="paint21_radial_160_18" cx="0" cy="0" r="1" gradientUnits="userSpaceOnUse" gradientTransform="translate(85.2142 86.1361) rotate(90) scale(52.3486 54.7948)">
<stop stop-color="#D9BE77"/>
<stop offset="1" stop-color="#A5803C"/>
</radialGradient>
<radialGradient id="paint22_radial_160_18" cx="0" cy="0" r="1" gradientUnits="userSpaceOnUse" gradientTransform="translate(85.2142 86.1361) rotate(90) scale(52.3486 54.7948)">
<stop stop-color="#D9BE77"/>
<stop offset="1" stop-color="#A5803C"/>
</radialGradient>
<radialGradient id="paint23_radial_160_18" cx="0" cy="0" r="1" gradientUnits="userSpaceOnUse" gradientTransform="translate(85.2142 86.1361) rotate(90) scale(52.3486 54.7948)">
<stop stop-color="#D9BE77"/>
<stop offset="1" stop-color="#A5803C"/>
</radialGradient>
<radialGradient id="paint24_radial_160_18" cx="0" cy="0" r="1" gradientUnits="userSpaceOnUse" gradientTransform="translate(85.2142 86.1361) rotate(90) scale(52.3486 54.7948)">
<stop stop-color="#D9BE77"/>
<stop offset="1" stop-color="#A5803C"/>
</radialGradient>
<radialGradient id="paint25_radial_160_18" cx="0" cy="0" r="1" gradientUnits="userSpaceOnUse" gradientTransform="translate(85.2142 86.1361) rotate(90) scale(52.3486 54.7948)">
<stop stop-color="#D9BE77"/>
<stop offset="1" stop-color="#A5803C"/>
</radialGradient>
<radialGradient id="paint26_radial_160_18" cx="0" cy="0" r="1" gradientUnits="userSpaceOnUse" gradientTransform="translate(85.2142 86.1361) rotate(90) scale(52.3486 54.7948)">
<stop stop-color="#D9BE77"/>
<stop offset="1" stop-color="#A5803C"/>
</radialGradient>
<radialGradient id="paint27_radial_160_18" cx="0" cy="0" r="1" gradientUnits="userSpaceOnUse" gradientTransform="translate(85.2142 86.1361) rotate(90) scale(52.3486 54.7948)">
<stop stop-color="#D9BE77"/>
<stop offset="1" stop-color="#A5803C"/>
</radialGradient>
<radialGradient id="paint28_radial_160_18" cx="0" cy="0" r="1" gradientUnits="userSpaceOnUse" gradientTransform="translate(85.2142 86.1361) rotate(90) scale(52.3486 54.7948)">
<stop stop-color="#D9BE77"/>
<stop offset="1" stop-color="#A5803C"/>
</radialGradient>
<radialGradient id="paint29_radial_160_18" cx="0" cy="0" r="1" gradientUnits="userSpaceOnUse" gradientTransform="translate(85.2142 86.1361) rotate(90) scale(52.3486 54.7948)">
<stop stop-color="#D9BE77"/>
<stop offset="1" stop-color="#A5803C"/>
</radialGradient>
<radialGradient id="paint30_radial_160_18" cx="0" cy="0" r="1" gradientUnits="userSpaceOnUse" gradientTransform="translate(85.2142 86.1361) rotate(90) scale(52.3486 54.7948)">
<stop stop-color="#D9BE77"/>
<stop offset="1" stop-color="#A5803C"/>
</radialGradient>
<radialGradient id="paint31_radial_160_18" cx="0" cy="0" r="1" gradientUnits="userSpaceOnUse" gradientTransform="translate(85.2142 86.1361) rotate(90) scale(52.3486 54.7948)">
<stop stop-color="#D9BE77"/>
<stop offset="1" stop-color="#A5803C"/>
</radialGradient>
<radialGradient id="paint32_radial_160_18" cx="0" cy="0" r="1" gradientUnits="userSpaceOnUse" gradientTransform="translate(85.2142 86.1361) rotate(90) scale(52.3486 54.7948)">
<stop stop-color="#D9BE77"/>
<stop offset="1" stop-color="#A5803C"/>
</radialGradient>
<radialGradient id="paint33_radial_160_18" cx="0" cy="0" r="1" gradientUnits="userSpaceOnUse" gradientTransform="translate(85.2142 86.1361) rotate(90) scale(52.3486 54.7948)">
<stop stop-color="#D9BE77"/>
<stop offset="1" stop-color="#A5803C"/>
</radialGradient>
<radialGradient id="paint34_radial_160_18" cx="0" cy="0" r="1" gradientUnits="userSpaceOnUse" gradientTransform="translate(85.2142 86.1361) rotate(90) scale(52.3486 54.7948)">
<stop stop-color="#D9BE77"/>
<stop offset="1" stop-color="#A5803C"/>
</radialGradient>
<radialGradient id="paint35_radial_160_18" cx="0" cy="0" r="1" gradientUnits="userSpaceOnUse" gradientTransform="translate(85.2142 86.1361) rotate(90) scale(52.3486 54.7948)">
<stop stop-color="#D9BE77"/>
<stop offset="1" stop-color="#A5803C"/>
</radialGradient>
<radialGradient id="paint36_radial_160_18" cx="0" cy="0" r="1" gradientUnits="userSpaceOnUse" gradientTransform="translate(85.2142 86.1361) rotate(90) scale(52.3486 54.7948)">
<stop stop-color="#D9BE77"/>
<stop offset="1" stop-color="#A5803C"/>
</radialGradient>
<radialGradient id="paint37_radial_160_18" cx="0" cy="0" r="1" gradientUnits="userSpaceOnUse" gradientTransform="translate(85.2142 86.1361) rotate(90) scale(52.3486 54.7948)">
<stop stop-color="#D9BE77"/>
<stop offset="1" stop-color="#A5803C"/>
</radialGradient>
<radialGradient id="paint38_radial_160_18" cx="0" cy="0" r="1" gradientUnits="userSpaceOnUse" gradientTransform="translate(85.2142 86.1361) rotate(90) scale(52.3486 54.7948)">
<stop stop-color="#D9BE77"/>
<stop offset="1" stop-color="#A5803C"/>
</radialGradient>
<radialGradient id="paint39_radial_160_18" cx="0" cy="0" r="1" gradientUnits="userSpaceOnUse" gradientTransform="translate(85.2142 86.1361) rotate(90) scale(52.3486 54.7948)">
<stop stop-color="#D9BE77"/>
<stop offset="1" stop-color="#A5803C"/>
</radialGradient>
<radialGradient id="paint40_radial_160_18" cx="0" cy="0" r="1" gradientUnits="userSpaceOnUse" gradientTransform="translate(85.2142 86.1361) rotate(90) scale(52.3486 54.7948)">
<stop stop-color="#D9BE77"/>
<stop offset="1" stop-color="#A5803C"/>
</radialGradient>
<radialGradient id="paint41_radial_160_18" cx="0" cy="0" r="1" gradientUnits="userSpaceOnUse" gradientTransform="translate(85.2142 86.1361) rotate(90) scale(52.3486 54.7948)">
<stop stop-color="#D9BE77"/>
<stop offset="1" stop-color="#A5803C"/>
</radialGradient>
<radialGradient id="paint42_radial_160_18" cx="0" cy="0" r="1" gradientUnits="userSpaceOnUse" gradientTransform="translate(85.2142 86.1361) rotate(90) scale(52.3486 54.7948)">
<stop stop-color="#D9BE77"/>
<stop offset="1" stop-color="#A5803C"/>
</radialGradient>
<radialGradient id="paint43_radial_160_18" cx="0" cy="0" r="1" gradientUnits="userSpaceOnUse" gradientTransform="translate(85.2142 86.1361) rotate(90) scale(52.3486 54.7948)">
<stop stop-color="#D9BE77"/>
<stop offset="1" stop-color="#A5803C"/>
</radialGradient>
<radialGradient id="paint44_radial_160_18" cx="0" cy="0" r="1" gradientUnits="userSpaceOnUse" gradientTransform="translate(85.2142 86.1361) rotate(90) scale(52.3486 54.7948)">
<stop stop-color="#D9BE77"/>
<stop offset="1" stop-color="#A5803C"/>
</radialGradient>
<radialGradient id="paint45_radial_160_18" cx="0" cy="0" r="1" gradientUnits="userSpaceOnUse" gradientTransform="translate(85.2142 86.1361) rotate(90) scale(52.3486 54.7948)">
<stop stop-color="#D9BE77"/>
<stop offset="1" stop-color="#A5803C"/>
</radialGradient>
<radialGradient id="paint46_radial_160_18" cx="0" cy="0" r="1" gradientUnits="userSpaceOnUse" gradientTransform="translate(85.2142 86.1361) rotate(90) scale(52.3486 54.7948)">
<stop stop-color="#D9BE77"/>
<stop offset="1" stop-color="#A5803C"/>
</radialGradient>
<radialGradient id="paint47_radial_160_18" cx="0" cy="0" r="1" gradientUnits="userSpaceOnUse" gradientTransform="translate(85.2142 86.1361) rotate(90) scale(52.3486 54.7948)">
<stop stop-color="#D9BE77"/>
<stop offset="1" stop-color="#A5803C"/>
</radialGradient>
<radialGradient id="paint48_radial_160_18" cx="0" cy="0" r="1" gradientUnits="userSpaceOnUse" gradientTransform="translate(85.2142 86.1361) rotate(90) scale(52.3486 54.7948)">
<stop stop-color="#D9BE77"/>
<stop offset="1" stop-color="#A5803C"/>
</radialGradient>
<radialGradient id="paint49_radial_160_18" cx="0" cy="0" r="1" gradientUnits="userSpaceOnUse" gradientTransform="translate(85.2142 86.1361) rotate(90) scale(52.3486 54.7948)">
<stop stop-color="#D9BE77"/>
<stop offset="1" stop-color="#A5803C"/>
</radialGradient>
<radialGradient id="paint50_radial_160_18" cx="0" cy="0" r="1" gradientUnits="userSpaceOnUse" gradientTransform="translate(85.2142 86.1361) rotate(90) scale(52.3486 54.7948)">
<stop stop-color="#D9BE77"/>
<stop offset="1" stop-color="#A5803C"/>
</radialGradient>
<radialGradient id="paint51_radial_160_18" cx="0" cy="0" r="1" gradientUnits="userSpaceOnUse" gradientTransform="translate(85.2142 86.1361) rotate(90) scale(52.3486 54.7948)">
<stop stop-color="#D9BE77"/>
<stop offset="1" stop-color="#A5803C"/>
</radialGradient>
<radialGradient id="paint52_radial_160_18" cx="0" cy="0" r="1" gradientUnits="userSpaceOnUse" gradientTransform="translate(85.2142 86.1361) rotate(90) scale(52.3486 54.7948)">
<stop stop-color="#D9BE77"/>
<stop offset="1" stop-color="#A5803C"/>
</radialGradient>
<radialGradient id="paint53_radial_160_18" cx="0" cy="0" r="1" gradientUnits="userSpaceOnUse" gradientTransform="translate(85.2142 86.1361) rotate(90) scale(52.3486 54.7948)">
<stop stop-color="#D9BE77"/>
<stop offset="1" stop-color="#A5803C"/>
</radialGradient>
<radialGradient id="paint54_radial_160_18" cx="0" cy="0" r="1" gradientUnits="userSpaceOnUse" gradientTransform="translate(85.2142 86.1361) rotate(90) scale(52.3486 54.7948)">
<stop stop-color="#D9BE77"/>
<stop offset="1" stop-color="#A5803C"/>
</radialGradient>
<radialGradient id="paint55_radial_160_18" cx="0" cy="0" r="1" gradientUnits="userSpaceOnUse" gradientTransform="translate(85.2142 86.1361) rotate(90) scale(52.3486 54.7948)">
<stop stop-color="#D9BE77"/>
<stop offset="1" stop-color="#A5803C"/>
</radialGradient>
<radialGradient id="paint56_radial_160_18" cx="0" cy="0" r="1" gradientUnits="userSpaceOnUse" gradientTransform="translate(85.2142 86.1361) rotate(90) scale(52.3486 54.7948)">
<stop stop-color="#D9BE77"/>
<stop offset="1" stop-color="#A5803C"/>
</radialGradient>
<radialGradient id="paint57_radial_160_18" cx="0" cy="0" r="1" gradientUnits="userSpaceOnUse" gradientTransform="translate(85.2142 86.1361) rotate(90) scale(52.3486 54.7948)">
<stop stop-color="#D9BE77"/>
<stop offset="1" stop-color="#A5803C"/>
</radialGradient>
<radialGradient id="paint58_radial_160_18" cx="0" cy="0" r="1" gradientUnits="userSpaceOnUse" gradientTransform="translate(85.2142 86.1361) rotate(90) scale(52.3486 54.7948)">
<stop stop-color="#D9BE77"/>
<stop offset="1" stop-color="#A5803C"/>
</radialGradient>
<radialGradient id="paint59_radial_160_18" cx="0" cy="0" r="1" gradientUnits="userSpaceOnUse" gradientTransform="translate(85.2142 86.1361) rotate(90) scale(52.3486 54.7948)">
<stop stop-color="#D9BE77"/>
<stop offset="1" stop-color="#A5803C"/>
</radialGradient>
<radialGradient id="paint60_radial_160_18" cx="0" cy="0" r="1" gradientUnits="userSpaceOnUse" gradientTransform="translate(85.2142 86.1361) rotate(90) scale(52.3486 54.7948)">
<stop stop-color="#D9BE77"/>
<stop offset="1" stop-color="#A5803C"/>
</radialGradient>
<radialGradient id="paint61_radial_160_18" cx="0" cy="0" r="1" gradientUnits="userSpaceOnUse" gradientTransform="translate(85.2142 86.1361) rotate(90) scale(52.3486 54.7948)">
<stop stop-color="#D9BE77"/>
<stop offset="1" stop-color="#A5803C"/>
</radialGradient>
<radialGradient id="paint62_radial_160_18" cx="0" cy="0" r="1" gradientUnits="userSpaceOnUse" gradientTransform="translate(85.2142 86.1361) rotate(90) scale(52.3486 54.7948)">
<stop stop-color="#D9BE77"/>
<stop offset="1" stop-color="#A5803C"/>
</radialGradient>
<radialGradient id="paint63_radial_160_18" cx="0" cy="0" r="1" gradientUnits="userSpaceOnUse" gradientTransform="translate(85.2142 86.1361) rotate(90) scale(52.3486 54.7948)">
<stop stop-color="#D9BE77"/>
<stop offset="1" stop-color="#A5803C"/>
</radialGradient>
<radialGradient id="paint64_radial_160_18" cx="0" cy="0" r="1" gradientUnits="userSpaceOnUse" gradientTransform="translate(85.2142 86.1361) rotate(90) scale(52.3486 54.7948)">
<stop stop-color="#D9BE77"/>
<stop offset="1" stop-color="#A5803C"/>
</radialGradient>
<radialGradient id="paint65_radial_160_18" cx="0" cy="0" r="1" gradientUnits="userSpaceOnUse" gradientTransform="translate(85.2142 86.1361) rotate(90) scale(52.3486 54.7948)">
<stop stop-color="#D9BE77"/>
<stop offset="1" stop-color="#A5803C"/>
</radialGradient>
<clipPath id="clip0_160_18">
<rect width="109.591" height="134.052" fill="white" transform="translate(30.4194 4.43286)"/>
</clipPath>
</defs>
</svg>
